<?xml version="1.0" standalone="no"?>
<!DOCTYPE svg PUBLIC "-//W3C//DTD SVG 20010904//EN"
 "http://www.w3.org/TR/2001/REC-SVG-20010904/DTD/svg10.dtd">
<svg version="1.0" xmlns="http://www.w3.org/2000/svg"
 width="700.000000pt" height="700.000000pt" viewBox="0 0 700.000000 700.000000"
 preserveAspectRatio="xMidYMid meet">
<metadata>
Created by potrace 1.14, written by Peter Selinger 2001-2017
</metadata>
<g transform="translate(0.000000,700.000000) scale(0.100000,-0.100000)"
fill="#000000" stroke="none">
<path d="M3535 6648 c-243 -232 -421 -465 -535 -702 -129 -267 -178 -466 -235
-961 -78 -662 -161 -900 -495 -1405 -244 -370 -323 -521 -408 -775 -142 -425
-169 -799 -86 -1174 105 -471 338 -812 793 -1160 165 -126 409 -278 384 -239
-4 7 -35 54 -68 103 -33 50 -92 153 -131 230 -223 443 -272 906 -139 1330 67
214 149 352 322 540 143 156 185 207 242 290 126 183 201 404 230 677 15 137
13 456 -4 632 -8 83 -12 152 -10 154 8 9 311 -303 386 -398 364 -457 569 -940
620 -1457 14 -142 6 -407 -16 -548 -63 -403 -211 -775 -534 -1340 -66 -115
-118 -211 -116 -213 5 -5 176 100 315 195 267 183 547 435 712 643 289 362
451 749 499 1185 14 131 6 403 -15 551 -48 323 -159 659 -335 1014 -213 429
-479 815 -921 1340 -185 219 -297 449 -351 717 -44 222 -36 556 20 811 10 45
15 82 11 82 -4 0 -65 -55 -135 -122z"/>
</g>
</svg>
