<svg xmlns="http://www.w3.org/2000/svg" viewBox="0 0 300 60"><path d="m129.02 40.43.52-.11c.27 0 .53.11.78.33.25.22.37.39.37.52s-.76 1.31-2.29 3.57c-1.53 2.25-2.29 3.83-2.29 4.71 0 .07.01.15.04.22.12.57.39.85.81.85 1.28 0 3.62-2.12 7.02-6.36.07-.1.16-.15.26-.15s.15.09.15.28-.11.43-.33.72c-3.16 4.21-5.56 6.32-7.21 6.32-.22 0-.43-.04-.63-.11-1.08-.42-1.63-1.23-1.63-2.44 0-.42.05-.84.15-1.26l-2.29 2.22c-1.45 1.28-2.51 1.92-3.16 1.92s-1.28-.21-1.87-.63c-.67-.49-1-1.15-1-1.96 0-1.8 1.26-3.95 3.77-6.45s4.82-3.75 6.91-3.75c.81 0 1.35.28 1.63.85.07.2.14.36.19.5.05.14.09.2.11.2Zm-11.05 9.09c0 .89.31 1.33.92 1.33 1.43 0 3.38-1.57 5.84-4.69l3.92-5.4c-.2-.34-.52-.52-.96-.52-1.5 0-3.5 1.16-5.99 3.49s-3.73 4.26-3.73 5.78Z" fill="#fff"/><path d="M139.48 51.67c-1.85 0-2.77-1.02-2.77-3.07 0-1.04.27-2.17.81-3.4s1.13-2.27 1.77-3.11c-.12.03-.28.04-.48.04-.59 0-1.08-.42-1.48-1.26l-2.74 3.55c-1.53 1.9-2.42 2.85-2.66 2.85-.12 0-.18-.05-.18-.15 0-.25.21-.6.63-1.07 2.14-2.49 3.66-4.6 4.55-6.32.57-2.14 1.28-3.22 2.14-3.22.57 0 .85.25.85.74s-.31 1.12-.92 1.88l-.89 1.18c0 .52.38.78 1.15.78.44 0 .94-.16 1.48-.48l.96-.59s.17-.04.37-.04.41.12.63.37c.22.25.3.47.22.67l-2.55 3.22c-1.58 2.02-2.37 3.62-2.37 4.79s.54 1.76 1.63 1.76 2.53-.6 4.18-1.81c.99-.71 1.89-1.52 2.7-2.4.76-.89 1.18-1.33 1.26-1.33.17 0 .26.09.26.28s-.11.4-.33.65l-1.18 1.33c-.67.69-1.4 1.36-2.22 2-1.95 1.45-3.55 2.18-4.8 2.18Z" fill="#fff"/><path d="m156.15 39.58 5.32-.07c.07.05.11.09.11.11 0 .22-1.53.53-4.6.92-3.07.39-4.73.63-4.97.7-.47.42-1.33 1.67-2.59 3.75-1.26 2.08-1.88 3.6-1.88 4.57s.63 1.37 1.88 1.37c.59 0 1.37-.18 2.33-.55.96-.37 1.7-.71 2.22-1.04 1.38-.86 2.86-2.13 4.43-3.81.35-.34.58-.52.7-.52.07 0 .11.07.11.22s-.18.44-.55.89c-1.28 1.58-2.72 2.85-4.32 3.81-1.92 1.18-3.76 1.77-5.51 1.77-.76 0-1.39-.17-1.87-.5s-.72-1-.72-2.01.44-2.4 1.33-4.16c.89-1.76 1.56-3.07 2.03-3.94-.35.07-.64.11-.89.11-.71 0-1.07-.28-1.07-.85 0-.42.29-.71.89-.89.07 0 .18-.01.33-.04H151c.44-.57.95-1.22 1.52-1.96.69-.89 1.16-1.33 1.4-1.33s.55.1.92.3c.37.2.55.43.55.7s-.59 1.07-1.77 2.4c.64.02 1.48.04 2.51.04Z" fill="#fff"/><path d="M158.81 51.89c-1.26 0-1.88-.81-1.88-2.44 0-1.33.73-3.17 2.18-5.53s2.62-3.54 3.51-3.57c.25 0 .52.1.83.3.31.2.46.39.46.59-.12.17-.27.36-.44.57-.17.21-.36.44-.55.68s-.47.6-.81 1.05c-.34.46-.68.89-1 1.31-1.85 2.39-2.77 4.04-2.77 4.93s.31 1.35.92 1.35c.52 0 1.22-.28 2.11-.85 2.07-1.28 3.71-2.69 4.92-4.21.44-.57.75-.85.91-.85s.24.1.24.3-.28.59-.85 1.18-1.02 1.06-1.35 1.41c-.33.34-.56.57-.68.68-.12.11-.35.32-.68.63-.33.31-.59.52-.76.65-.17.12-.42.31-.74.55-.32.25-.6.43-.85.54-.25.11-.53.24-.85.39-.52.22-1.13.33-1.85.33Zm7.75-15.14c.33.23.5.51.5.83s-.15.6-.46.83c-.31.23-.65.35-1.02.35s-.71-.14-1.02-.41c-.31-.27-.46-.58-.46-.92 0-.69.47-1.04 1.4-1.04.37 0 .72.12 1.05.35Z" fill="#fff"/><path d="M172.64 50.93c-.71.42-1.6.63-2.64.63s-1.85-.34-2.4-1.04c-.55-.69-1.03-1.79-1.42-3.29-.44.44-.75.67-.92.67-.12 0-.18-.09-.18-.26s.06-.32.18-.44c.81-1.01 2.19-2.46 4.14-4.36l4.66-4.36c1.33-1.26 2.12-1.88 2.37-1.88.79 0 1.18.29 1.18.89 0 .3-.12.59-.35.87-.24.28-.41.5-.52.67-.11.16-.23.31-.35.46-.44.76-.89 2.34-1.35 4.73-.46 2.39-.81 4.05-1.05 4.99 2.04-.02 4.15-1.35 6.32-3.99.25-.25.43-.37.55-.37s.18.08.18.24-.11.38-.33.65c-1.43 1.68-2.76 2.85-3.99 3.51-.74.37-1.7.68-2.88.92l-1.18.78Zm-4.99-4.1c0 .84.28 1.52.83 2.05s1.18.79 1.87.79 1.22-.13 1.59-.41c.49-.27.98-1.4 1.46-3.4s.77-3.76.87-5.29l.15-1.26c-1.36 1.01-2.8 2.32-4.34 3.92s-2.33 2.66-2.38 3.18c-.02.15-.04.28-.04.41Z" fill="#fff"/><path d="m188.75 39.58 5.32-.07c.07.05.11.09.11.11 0 .22-1.53.53-4.6.92-3.07.39-4.73.63-4.97.7-.47.42-1.33 1.67-2.59 3.75-1.26 2.08-1.88 3.6-1.88 4.57s.63 1.37 1.88 1.37c.59 0 1.37-.18 2.33-.55.96-.37 1.7-.71 2.22-1.04 1.38-.86 2.86-2.13 4.44-3.81.34-.34.58-.52.7-.52.07 0 .11.07.11.22s-.18.44-.55.89c-1.28 1.58-2.72 2.85-4.32 3.81-1.92 1.18-3.76 1.77-5.51 1.77-.76 0-1.39-.17-1.87-.5s-.72-1-.72-2.01.44-2.4 1.33-4.16c.89-1.76 1.56-3.07 2.03-3.94-.34.07-.64.11-.89.11-.71 0-1.07-.28-1.07-.85 0-.42.3-.71.89-.89.07 0 .18-.01.33-.04h2.14c.44-.57.95-1.22 1.51-1.96.69-.89 1.16-1.33 1.41-1.33s.55.1.92.3c.37.2.55.43.55.7s-.59 1.07-1.77 2.4c.64.02 1.48.04 2.51.04Z" fill="#fff"/><path d="M197.62 51.67c-1.85 0-2.77-1.02-2.77-3.07 0-1.04.27-2.17.81-3.4s1.13-2.27 1.77-3.11c-.12.03-.28.04-.48.04-.59 0-1.08-.42-1.48-1.26l-2.74 3.55c-1.53 1.9-2.42 2.85-2.66 2.85-.12 0-.18-.05-.18-.15 0-.25.21-.6.63-1.07 2.14-2.49 3.66-4.6 4.55-6.32.57-2.14 1.28-3.22 2.14-3.22.57 0 .85.25.85.74s-.31 1.12-.92 1.88l-.89 1.18c0 .52.38.78 1.15.78.44 0 .94-.16 1.48-.48l.96-.59s.17-.04.37-.04.41.12.63.37c.22.25.3.47.22.67l-2.55 3.22c-1.58 2.02-2.37 3.62-2.37 4.79s.54 1.76 1.63 1.76 2.53-.6 4.18-1.81c.99-.71 1.88-1.52 2.7-2.4.76-.89 1.18-1.33 1.26-1.33.17 0 .26.09.26.28s-.11.4-.33.65l-1.18 1.33c-.67.69-1.41 1.36-2.22 2-1.95 1.45-3.55 2.18-4.81 2.18Z" fill="#fff"/><path d="M202.58 55.77c1.18 1.48 2.21 2.22 3.07 2.22 1.4 0 2.92-1.12 4.55-3.36 1.18-1.65 2.34-3.73 3.47-6.25l1.41-3.4-5.43 4.25c-1.68 1.31-3.02 1.96-4.03 1.96-.54 0-.97-.18-1.29-.55-.32-.37-.48-.79-.48-1.26 0-1.06.91-2.8 2.74-5.23 1.82-2.43 3.15-3.64 3.99-3.64s1.26.28 1.26.85c0 .22-1.09 1.5-3.27 3.83-2.18 2.33-3.27 3.9-3.27 4.71 0 .32.21.48.63.48.79 0 2.37-.92 4.75-2.77s4.17-3.38 5.38-4.58c.27-.32.65-.8 1.15-1.44.47-.54.99-.81 1.55-.81s.85.27.85.81c0 .1-.55.97-1.66 2.62-1.11 1.65-1.69 2.53-1.74 2.62-.76 1.48-1.93 3.63-3.51 6.47-2.39 3.84-4.78 5.77-7.17 5.77-.79 0-1.48-.34-2.07-1.02s-.87-1.44-.85-2.27ZM166.82 38.3c-.47.64-1.2.65-1.56.61-1.29-.15-1.19-1.71-1.08-2.03.63-1.76 2.82-1.03 2.69-4.04 0 0 1.52 3.32-.05 5.47ZM21.81 48.21c.12-.79.2-1.47.22-2.29h5.88c-.02 1.83-.2 3.49-.49 5.3-4.22.59-8.42.84-12.62.84s-8.49-.25-12.74-.84c-.35-2.58-.54-4.98-.54-7.56s.2-4.98.54-7.56c4.25-.59 8.49-.84 12.74-.84s8.39.18 12.62.66c.3 1.9.47 3.62.52 5.46h-5.9c-.02-.77-.1-1.47-.22-2.26-2.3-.25-4.72-.29-7.01-.29s-4.81.05-7.16.29c-.15 1.56-.25 2.99-.25 4.55s.1 2.99.25 4.55c2.35.25 4.79.29 7.16.29s4.72-.05 7.01-.29Zm16.87 3.6h-5.41v-16.3h5.41v16.3Zm19.46-7.99c1.95 0 3.75-.02 5.58-.11.12-.86.2-1.7.2-2.56s-.07-1.54-.2-2.38c-2.35-.14-4.52-.16-7.16-.16s-4.67 0-6.99.09l-.02 13.11h-5.36V35.53c4.12-.16 8.27-.25 12.39-.25 3.73 0 8.52.2 12.32.7.32 1.61.54 3.17.54 4.78 0 1.9-.07 3.85-.54 5.89-1.73.07-3.68.25-5.6.32l6.59 4.85h-6.86L52.69 44.3v-.5c2 0 3.78.02 5.46.02Zm35.19 1.13H80.2v3.56c3.04.09 6.37.11 9.38.11s6.54-.02 9.55-.29l.02 3.4c-3.98.25-7.75.34-11.65.34-4.2 0-8.57-.09-12.71-.34V35.61c4.39-.25 9.01-.34 13.41-.34 3.63 0 7.16.09 10.89.34v3.4c-3.18-.27-7.01-.29-10.17-.29-2.86 0-5.9.02-8.71.09v3.6h13.11l.02 2.56Z" fill="#fff"/><path d="M39.49 31.04c.91-1.66 1.48-2.97 1.88-4.49 1.51-5.7-1.48-10.78-4.79-13.63l-1.13-.97.18 1.48c.66 5.26-.72 6.72-1.93 8-.27.29-.53.56-.76.86-1.52 2-2.11 5.29-.53 8.72-.54-.43-1.13-.95-1.68-1.53-1.74-1.9-2.48-4.9-1.87-7.64.55-2.47 1.37-3.69 2.23-4.98.31-.47.63-.94.95-1.49 1.25-2.15 1.47-4.04 1.68-5.86.27-2.33.52-4.55 3.03-7.18-.27 2.61.37 4.89 1.91 6.65 4.71 5.43 6.74 10.32 6.02 14.53-.49 2.87-2.24 5.4-5.21 7.54Z" fill="#fff" fill-rule="evenodd"/><path d="M36.15 3.94c.09 2.07.8 3.9 2.1 5.4 4.59 5.3 6.57 10.03 5.89 14.06-.34 1.98-1.32 3.8-2.93 5.43.29-.7.53-1.39.72-2.14 1.58-5.96-1.53-11.25-4.97-14.21l-2.25-1.94.37 2.95c.62 4.99-.65 6.34-1.78 7.54-.27.28-.55.58-.8.91-1.3 1.71-1.97 4.31-1.33 7.14-1.62-1.76-2.3-4.56-1.73-7.13.52-2.37 1.28-3.49 2.15-4.78.32-.47.64-.95.97-1.52 1.31-2.25 1.55-4.29 1.75-6.09.22-1.93.42-3.66 1.84-5.62M37.63.71c-6.36 5.48-3.04 9.18-6.07 14.36-1.22 2.08-2.48 3.17-3.25 6.63-.66 2.98.18 6.17 2.01 8.15 1.48 1.61 3.4 2.79 3.81 2.92-2.99-4.1-2.28-8.1-.72-10.15 1.24-1.64 3.63-2.6 2.8-9.28 3.13 2.7 6.07 7.52 4.61 13.05-.55 2.08-1.43 3.73-2.99 6.38 4-2.29 14.12-9.37 1.27-24.19-2.35-2.71-1.93-6.04-1.48-7.88Zm57.91 32.3v-1.77h-.63v-.36h1.69v.36h-.63v1.77h-.43Zm1.48 0v-2.13h.64l.39 1.45.38-1.45h.65v2.13h-.4v-1.68l-.42 1.68h-.41l-.42-1.68v1.68h-.4Z" fill="#fff"/></svg>